<svg width="19" height="5" viewBox="0 0 19 5" fill="none" xmlns="http://www.w3.org/2000/svg">
<path d="M0.823223 2.32322C0.725592 2.42085 0.725592 2.57915 0.823223 2.67678L2.41421 4.26777C2.51184 4.3654 2.67014 4.3654 2.76777 4.26777C2.8654 4.17014 2.8654 4.01184 2.76777 3.91421L1.35355 2.5L2.76777 1.08579C2.8654 0.988155 2.8654 0.829864 2.76777 0.732233C2.67014 0.634602 2.51184 0.634602 2.41421 0.732233L0.823223 2.32322ZM18.1768 2.67678C18.2744 2.57915 18.2744 2.42085 18.1768 2.32322L16.5858 0.732233C16.4882 0.634602 16.3299 0.634602 16.2322 0.732233C16.1346 0.829864 16.1346 0.988155 16.2322 1.08579L17.6464 2.5L16.2322 3.91421C16.1346 4.01184 16.1346 4.17014 16.2322 4.26777C16.3299 4.3654 16.4882 4.3654 16.5858 4.26777L18.1768 2.67678ZM1 2.75H18V2.25H1V2.75Z" fill="#004C41"/>
</svg>
