<svg width="33" height="29" viewBox="0 0 33 29" fill="none" xmlns="http://www.w3.org/2000/svg">
<path d="M16.1708 3.91737L16.4998 4.20479L16.8287 3.91737C18.6043 2.36611 21.0699 1.26783 23.593 1.19362C26.1023 1.11982 28.5589 2.01707 30.4604 4.39802C32.4945 6.96841 32.2504 11.3996 29.7868 16.0387C27.3308 20.61 22.7866 25.1446 16.4998 27.8406C10.2121 25.1443 5.6694 20.6096 3.25274 16.0406L3.25275 16.0406L3.25081 16.037C0.748956 11.3989 0.505445 6.96789 2.53912 4.39802C4.44058 2.01707 6.89724 1.11982 9.40656 1.19362C11.9297 1.26783 14.3952 2.36611 16.1708 3.91737Z" fill="#E5B77D" stroke="#E5B77D"/>
</svg>
