<svg width="35" height="31" viewBox="0 0 35 31" fill="none" xmlns="http://www.w3.org/2000/svg">
<path d="M17.171 4.35559L17.5 4.64301L17.829 4.35559C19.6995 2.72133 22.2971 1.56405 24.9562 1.48584C27.6015 1.40804 30.1922 2.35429 32.1966 4.86424C34.3447 7.57862 34.0826 12.2498 31.491 17.1299C28.9051 21.9432 24.1199 26.7169 17.5 29.5529C10.8793 26.7165 6.09564 21.9428 3.55098 17.1318L3.55099 17.1318L3.54906 17.1282C0.917188 12.2491 0.655686 7.57808 2.80338 4.86421C4.80784 2.35428 7.39849 1.40804 10.0438 1.48584C12.7029 1.56405 15.3005 2.72133 17.171 4.35559Z" stroke="#E5B77D"/>
</svg>
