<svg width="19" height="17" viewBox="0 0 19 17" fill="none" xmlns="http://www.w3.org/2000/svg">
<path d="M9.17093 2.41359L9.4999 2.70101L9.82887 2.41359C10.8444 1.52633 12.254 0.900049 13.6891 0.85784C15.1104 0.816037 16.495 1.32127 17.5725 2.67018C18.6947 4.08861 18.5945 6.59986 17.1549 9.31097C15.7389 11.9463 13.1226 14.5687 9.4999 16.1443C5.87638 14.5684 3.26159 11.9459 1.86888 9.31278L1.8689 9.31277L1.86696 9.30918C0.405105 6.59913 0.305574 4.0881 1.42729 2.6702C2.50474 1.32128 3.8894 0.816037 5.3107 0.85784C6.7458 0.900049 8.15539 1.52633 9.17093 2.41359Z" stroke="#E5B77D"/>
</svg>
