<svg width="25" height="25" viewBox="0 0 25 25" fill="none" xmlns="http://www.w3.org/2000/svg">
<circle cx="12.5" cy="12.5" r="12.0968" stroke="#25322C" stroke-opacity="0.6" stroke-width="0.806452"/>
<path d="M12.2261 9.35732L12.4994 9.60923L12.7727 9.35732C13.3255 8.84781 14.0883 8.49285 14.8564 8.46902C15.6109 8.4456 16.3488 8.7255 16.9309 9.49431C17.5266 10.2891 17.4891 11.7336 16.6864 13.3283C15.9083 14.856 14.477 16.3754 12.4994 17.2989C10.5212 16.3751 9.09097 14.8556 8.32596 13.3297L8.32598 13.3297L8.32452 13.3268C7.50961 11.733 7.47249 10.2886 8.06795 9.49427C8.65008 8.7255 9.38792 8.4456 10.1424 8.46902C10.9105 8.49285 11.6734 8.84781 12.2261 9.35732Z" stroke="#25322C" stroke-opacity="0.6" stroke-width="0.806452"/>
</svg>
