<svg width="31" height="31" viewBox="0 0 31 31" fill="none" xmlns="http://www.w3.org/2000/svg">
<circle cx="15.5" cy="15.5" r="15" stroke="#004C41"/>
<path d="M15.1604 11.6032L15.4993 11.9155L15.8382 11.6032C16.5236 10.9714 17.4695 10.5312 18.4219 10.5017C19.3575 10.4726 20.2725 10.8197 20.9943 11.773C21.7331 12.7585 21.6865 14.5497 20.6912 16.5272C19.7264 18.4215 17.9515 20.3056 15.4993 21.4507C13.0463 20.3052 11.2728 18.421 10.3242 16.5289L10.3242 16.5289L10.3224 16.5253C9.31193 14.549 9.2659 12.758 10.0043 11.773C10.7261 10.8197 11.641 10.4726 12.5766 10.5017C13.5291 10.5312 14.475 10.9714 15.1604 11.6032Z" stroke="#004C41"/>
</svg>
