<svg width="77" height="16" viewBox="0 0 77 16" fill="none" xmlns="http://www.w3.org/2000/svg">
<path d="M77 7.27273H16.4466V8.72727H77V7.27273Z" fill="#D6C7B5"/>
<path d="M0 8C0 12.4183 3.68169 16 8.2233 16C12.7649 16 16.4466 12.4183 16.4466 8C16.4466 3.58172 12.7649 0 8.2233 0C3.68169 0 0 3.58172 0 8ZM14.5808 8C14.5808 11.4158 11.7344 14.1848 8.2233 14.1848C4.71216 14.1848 1.86581 11.4158 1.86581 8C1.86581 4.5842 4.71216 1.81515 8.2233 1.81515C11.7344 1.81515 14.5808 4.5842 14.5808 8Z" fill="#D6C7B5"/>
</svg>
