<svg width="482" height="249" viewBox="0 0 482 249" fill="none" xmlns="http://www.w3.org/2000/svg">
<path d="M0.0800781 198H7.14808V172.312H37.3201V171.172H7.14808V145.94H23.2601C29.4921 146.092 36.7121 146.776 40.3601 147.84L39.6001 144.8H0.0800781V198Z" fill="#2C2C2C"/>
<path d="M65.1254 198H106.925L107.685 194.96C104.037 196.024 96.8174 196.708 90.5854 196.86H72.1934V172.236H102.365V171.096H72.1934V145.94H89.0654C95.2974 146.092 102.517 146.776 106.165 147.84L105.405 144.8H65.1254V198Z" fill="#2C2C2C"/>
<path d="M132.843 198H173.123L173.883 194.96C170.235 196.024 163.015 196.708 156.783 196.86H139.911V144.8H132.843V198Z" fill="#2C2C2C"/>
<path d="M197.517 198H204.585V144.8H197.517V198Z" fill="#2C2C2C"/>
<path d="M233.839 198H240.907V176.948L245.467 171.4L263.251 198H272.523C269.179 195.188 267.203 192.756 264.543 189.26L249.495 166.536L267.355 144.8H265.911L240.907 175.2V144.8H233.839V198Z" fill="#2C2C2C"/>
<path d="M312.556 199.216C324.868 199.216 336.42 194.732 336.192 184.624C336.192 175.352 327.832 172.008 316.432 168.132C306.78 164.864 298.344 161.14 298.344 154.148C298.344 149.284 303.056 144.496 311.34 144.496C321.144 144.496 328.06 148.068 333.608 152.172L332.848 147.84C326.768 145.256 321.828 143.584 313.164 143.584C298.344 143.584 292.72 149.512 292.72 157.568C292.72 167.524 303.056 172.16 312.936 175.352C324.412 179 329.656 182.496 329.656 188.652C329.656 194.276 322.436 198.304 314.304 198.304C304.88 198.304 298.268 194.732 292.72 190.628L293.48 194.96C299.484 197.544 304.348 199.216 312.556 199.216Z" fill="#2C2C2C"/>
<path d="M359.415 171.4C359.415 188.12 370.967 199.216 388.295 199.216C405.699 199.216 417.251 188.12 417.251 171.4C417.251 154.68 405.699 143.584 388.295 143.584C370.967 143.584 359.415 154.68 359.415 171.4ZM368.307 178.696C363.975 166.764 365.571 150.5 378.795 145.712C381.227 144.876 383.507 144.42 385.711 144.42C396.427 144.42 404.559 153.844 408.283 164.104C412.919 176.872 410.031 192.68 397.719 197.164C395.363 198 393.083 198.456 390.879 198.456C380.543 198.456 372.259 189.488 368.307 178.696Z" fill="#2C2C2C"/>
<path d="M457.8 198.76H458.94L481.74 144.8H480.372L461.676 189.108L443.436 144.8H435.456L457.8 198.76Z" fill="#2C2C2C"/>
<path d="M231.395 0C189.573 0 160.746 39.3358 161.002 71.2204C172.364 51.0807 182.416 42.7715 205.773 32.3471C209.235 30.8017 210.987 29.7123 213.43 25.821L219.321 13.9036C220.794 10.7824 224.623 13.0523 223.739 15.3223L218.141 27.8071C256.03 19.8647 270.206 13.6245 285.59 0H231.395Z" fill="#2C2C2C"/>
<path d="M206.656 38.0221C185.744 43.9808 157.469 74.909 161.593 96.4739C165.193 115.301 186.922 89.6638 206.656 38.0221Z" fill="#2C2C2C"/>
<path d="M224.328 32.9146C261.917 25.1865 278.228 16.741 290.598 3.97244C291.482 31.496 291.554 43.9808 283.824 61.2892C272.926 85.6916 243.473 103 217.848 103H179.559C183.814 98.6482 186.039 96.0928 188.984 90.2313C193.702 80.843 196.353 77.2073 201.06 73.2065C209.352 67.0383 217.608 64.6862 234.932 61.2892C246.165 59.3545 252.096 56.6273 262.323 50.2231C264.385 48.8044 261.334 45.7903 259.967 46.5344C250.669 51.5954 245.535 54.0136 234.342 55.8981C216.404 58.9182 209.117 61.1409 201.06 66.1129C208.334 46.4339 215.714 34.6856 224.328 32.9146Z" fill="#2C2C2C"/>
<path d="M100.92 248H107.04C112.536 248 116.184 244.64 116.184 239.6C116.184 234.56 112.536 231.2 107.112 231.2H100.92V248ZM107.856 247.64H103.152V231.56H106.2C111.048 231.56 113.976 236.552 113.976 240.896C114 244.4 112.104 247.64 107.856 247.64Z" fill="#2C2C2C"/>
<path d="M136.338 248H138.57V231.2H136.338V248Z" fill="#2C2C2C"/>
<path d="M169.744 248H172.024L165.088 230.96H164.68L160.048 242.6C158.56 246.344 158.416 246.896 157.696 248H158.32L160.816 241.688V241.808H167.296L169.744 248ZM160.936 241.4L164.032 233.576L167.128 241.4H160.936Z" fill="#2C2C2C"/>
<path d="M199.441 248H199.945L205.489 231.968L208.393 248H210.961L207.865 231.2H205.249L200.593 244.64L194.857 231.2H192.217L190.801 244.472C190.489 246.944 190.393 247.472 189.985 248H190.993L192.625 231.944L199.441 248Z" fill="#2C2C2C"/>
<path d="M229.798 239.6C229.798 244.88 233.446 248.384 238.918 248.384C244.414 248.384 248.062 244.88 248.062 239.6C248.062 234.32 244.414 230.816 238.918 230.816C233.446 230.816 229.798 234.32 229.798 239.6ZM232.606 241.904C231.238 238.136 231.742 233 235.918 231.488C236.686 231.224 237.406 231.08 238.102 231.08C241.486 231.08 244.054 234.056 245.23 237.296C246.694 241.328 245.782 246.32 241.894 247.736C241.15 248 240.43 248.144 239.734 248.144C236.47 248.144 233.854 245.312 232.606 241.904Z" fill="#2C2C2C"/>
<path d="M280.98 248H281.484V231.2H281.076V243.944L270.276 231.2H268.212V242.624C268.188 244.592 268.188 246.848 267.852 248H268.62V233.288L280.98 248Z" fill="#2C2C2C"/>
<path d="M302.505 248H308.625C314.121 248 317.769 244.64 317.769 239.6C317.769 234.56 314.121 231.2 308.697 231.2H302.505V248ZM309.441 247.64H304.737V231.56H307.785C312.633 231.56 315.561 236.552 315.561 240.896C315.585 244.4 313.689 247.64 309.441 247.64Z" fill="#2C2C2C"/>
<path d="M343.131 248.384C347.019 248.384 350.667 246.968 350.595 243.776C350.595 240.848 347.955 239.792 344.355 238.568C341.307 237.536 338.643 236.36 338.643 234.152C338.643 232.616 340.131 231.104 342.747 231.104C345.843 231.104 348.027 232.232 349.779 233.528L349.539 232.16C347.619 231.344 346.059 230.816 343.323 230.816C338.643 230.816 336.867 232.688 336.867 235.232C336.867 238.376 340.131 239.84 343.251 240.848C346.875 242 348.531 243.104 348.531 245.048C348.531 246.824 346.251 248.096 343.683 248.096C340.707 248.096 338.619 246.968 336.867 245.672L337.107 247.04C339.003 247.856 340.539 248.384 343.131 248.384Z" fill="#2C2C2C"/>
</svg>
