<svg width="38" height="37" viewBox="0 0 38 37" fill="none" xmlns="http://www.w3.org/2000/svg">
<circle cx="19" cy="18.5" r="17.5" stroke="#E9E9E9" stroke-width="2"/>
<path d="M11.5999 12H26.4001C27.7963 12 28.5 12.6392 28.5 13.9392V23.0608C28.5 24.35 27.7963 25 26.4001 25H11.5999C10.2037 25 9.5 24.35 9.5 23.0608V13.9392C9.5 12.6392 10.2037 12 11.5999 12ZM18.9944 21.3167L26.5229 15.3258C26.791 15.1092 27.0032 14.6108 26.6681 14.1667C26.3442 13.7225 25.7522 13.7117 25.3613 13.9825L18.9944 18.1642L12.6387 13.9825C12.2478 13.7117 11.6558 13.7225 11.3319 14.1667C10.9968 14.6108 11.209 15.1092 11.4771 15.3258L18.9944 21.3167Z" fill="#E9E9E9"/>
</svg>
