<svg width="14" height="13" viewBox="0 0 14 13" fill="none" xmlns="http://www.w3.org/2000/svg">
<path d="M0.919922 3.39157L2.93714 0.857422M0.919922 3.39157L7.2547 11.9934M0.919922 3.39157H4.4589M2.93714 0.857422L4.4589 3.39157M2.93714 0.857422H7.18392M11.4307 0.857422L13.4479 3.39157M11.4307 0.857422L9.94432 3.39157M11.4307 0.857422H7.18392M13.4479 3.39157L7.2547 11.9934M13.4479 3.39157H9.94432M7.2547 11.9934L4.4589 3.39157M7.2547 11.9934L9.94432 3.39157M4.4589 3.39157H9.94432M4.4589 3.39157L7.18392 0.857422M9.94432 3.39157L7.18392 0.857422M11.006 5.1405L10.4044 6.0328" stroke="#22362D" stroke-width="0.464"/>
</svg>
