<svg width="38" height="37" viewBox="0 0 38 37" fill="none" xmlns="http://www.w3.org/2000/svg">
<circle cx="19" cy="18.5" r="17.5" stroke="#E9E9E9" stroke-width="2"/>
<path d="M27.5369 12.9462C27.6597 12.4653 27.5369 12.1113 26.9457 12.1113H24.9897C24.4916 12.1113 24.2625 12.4153 24.1396 12.7538C24.1396 12.7538 23.1433 15.5663 21.7353 17.3899C21.2803 17.917 21.0711 18.0863 20.822 18.0863C20.6991 18.0863 20.5098 17.917 20.5098 17.4361V12.9462C20.5098 12.3691 20.3704 12.1113 19.9586 12.1113H16.8834C16.5713 12.1113 16.3853 12.3806 16.3853 12.6307C16.3853 13.177 17.0893 13.304 17.1624 14.8429V18.1825C17.1624 18.9134 17.0495 19.0481 16.8004 19.0481C16.1362 19.0481 14.5223 16.2241 13.5659 12.9924C13.3732 12.3653 13.1839 12.1113 12.6825 12.1113H10.7265C10.1686 12.1113 10.0557 12.4153 10.0557 12.7538C10.0557 13.354 10.7198 16.3357 13.1474 20.2754C14.7647 22.9647 17.0428 24.4229 19.1151 24.4229C20.3604 24.4229 20.5132 24.0997 20.5132 23.5418C20.5132 20.9718 20.4003 20.7294 21.0246 20.7294C21.3135 20.7294 21.8116 20.8987 22.9739 22.1952C24.3023 23.7342 24.5215 24.4229 25.2654 24.4229H27.2214C27.7793 24.4229 28.0616 24.0997 27.8988 23.461C27.5269 22.1183 25.013 19.3559 24.9001 19.1712C24.6111 18.7403 24.6942 18.5479 24.9001 18.1632C24.9034 18.1594 27.2911 14.2658 27.5369 12.9462Z" fill="#E9E9E9"/>
</svg>
