<svg width="38" height="37" viewBox="0 0 38 37" fill="none" xmlns="http://www.w3.org/2000/svg">
<circle cx="19" cy="18.5" r="17.5" stroke="#E9E9E9" stroke-width="2"/>
<path d="M27.0791 13.3936C24.2369 8.99985 18.4341 7.6936 13.934 10.4249C9.55236 13.1561 8.13127 19.0937 10.9734 23.4875L11.2103 23.8437L10.2629 27.4062L13.8156 26.4562L14.1709 26.6937C15.7104 27.525 17.3683 28 19.0263 28C20.8026 28 22.579 27.525 24.1185 26.575C28.5001 23.725 29.8028 17.9062 27.0791 13.3936ZM24.5922 22.5375C24.1185 23.25 23.5264 23.725 22.6974 23.8437C22.2237 23.8437 21.6316 24.0812 19.2631 23.1312C17.2499 22.1812 15.592 20.6374 14.4077 18.8562C13.6972 18.0249 13.3419 16.9562 13.2235 15.8874C13.2235 14.9374 13.5788 14.1061 14.1709 13.5124C14.4077 13.2749 14.6446 13.1561 14.8814 13.1561H15.4735C15.7104 13.1561 15.9472 13.1561 16.0657 13.6311C16.3025 14.2249 16.8946 15.6499 16.8946 15.7687C17.013 15.8874 17.013 16.1249 16.8946 16.2437C17.013 16.4812 16.8946 16.7187 16.7762 16.8374C16.6578 16.9562 16.5394 17.1937 16.4209 17.3124C16.1841 17.4312 16.0657 17.6687 16.1841 17.9062C16.6578 18.6187 17.2499 19.3312 17.842 19.9249C18.5526 20.5187 19.2631 20.9937 20.0921 21.3499C20.3289 21.4687 20.5658 21.4687 20.6842 21.2312C20.8026 20.9937 21.3947 20.3999 21.6316 20.1624C21.8684 19.9249 21.9868 19.9249 22.2237 20.0437L24.1185 20.9937C24.3553 21.1124 24.5922 21.2312 24.7106 21.3499C24.829 21.7062 24.829 22.1812 24.5922 22.5375Z" fill="#E9E9E9"/>
</svg>
