<?xml version="1.0" standalone="no"?>
<!DOCTYPE svg PUBLIC "-//W3C//DTD SVG 20010904//EN"
 "http://www.w3.org/TR/2001/REC-SVG-20010904/DTD/svg10.dtd">
<svg version="1.0" xmlns="http://www.w3.org/2000/svg"
 width="90.000000pt" height="68.000000pt" viewBox="0 0 90.000000 68.000000"
 preserveAspectRatio="xMidYMid meet">

<g transform="translate(0.000000,68.000000) scale(0.100000,-0.100000)"
fill="#000000" stroke="none">
<path d="M412 573 c-27 -5 -92 -67 -92 -88 0 -16 85 36 93 58 4 9 6 9 6 0 1
-7 8 -13 16 -13 17 0 95 37 95 45 0 6 -85 4 -118 -2z"/>
<path d="M500 540 c-19 -11 -43 -19 -52 -20 -19 0 -58 -34 -58 -50 0 -10 54
-3 83 12 9 5 17 5 17 0 0 -5 -25 -16 -55 -26 -42 -13 -59 -24 -70 -47 l-16
-29 38 0 c92 1 157 61 151 140 l-3 38 -35 -18z"/>
<path d="M361 484 c-29 -21 -56 -83 -43 -96 12 -12 32 16 57 75 18 42 17 43
-14 21z"/>
<path d="M3 255 c0 -27 2 -38 4 -22 2 15 2 37 0 50 -2 12 -4 0 -4 -28z"/>
<path d="M123 255 c0 -27 2 -38 4 -22 2 15 2 37 0 50 -2 12 -4 0 -4 -28z"/>
<path d="M253 255 c0 -27 2 -38 4 -22 2 15 2 37 0 50 -2 12 -4 0 -4 -28z"/>
<path d="M373 255 c0 -27 2 -38 4 -22 2 15 2 37 0 50 -2 12 -4 0 -4 -28z"/>
<path d="M433 255 c0 -27 2 -38 4 -22 2 15 2 37 0 50 -2 12 -4 0 -4 -28z"/>
<path d="M544 280 c1 -8 11 -19 23 -25 11 -6 29 -17 39 -25 15 -13 17 -13 13
0 -3 8 -19 21 -37 29 -17 8 -33 19 -35 25 -2 6 -3 4 -3 -4z"/>
<path d="M754 265 c9 -30 12 -32 14 -15 2 13 -3 29 -11 37 -13 13 -13 10 -3
-22z"/>
<path d="M816 280 c9 -35 33 -78 33 -60 0 8 -9 31 -20 50 -15 26 -18 29 -13
10z"/>
<path d="M660 257 c0 -7 7 -22 15 -33 13 -17 14 -16 4 14 -11 33 -19 41 -19
19z"/>
<path d="M465 236 c10 -14 19 -26 22 -26 7 0 -17 39 -28 46 -6 3 -3 -5 6 -20z"/>
</g>
</svg>
